<?xml version="1.0" encoding="UTF-8" standalone="no"?>
<!DOCTYPE svg PUBLIC "-//W3C//DTD SVG 1.1//EN"
 "http://www.w3.org/Graphics/SVG/1.1/DTD/svg11.dtd">
<!-- Generated by graphviz version 3.0.0 (20220226.1711)
 -->
<!-- Pages: 1 -->
<svg width="514pt" height="260pt"
 viewBox="0.00 0.00 513.54 260.00" xmlns="http://www.w3.org/2000/svg" xmlns:xlink="http://www.w3.org/1999/xlink">
<g id="graph0" class="graph" transform="scale(1 1) rotate(0) translate(4 256)">
<polygon fill="white" stroke="transparent" points="-4,4 -4,-256 509.54,-256 509.54,4 -4,4"/>
<!-- [root] aws_instance.ec2_example (expand) -->
<g id="node1" class="node">
<title>[root] aws_instance.ec2_example (expand)</title>
<polygon fill="none" stroke="black" points="241.77,-108 77.77,-108 77.77,-72 241.77,-72 241.77,-108"/>
<text text-anchor="middle" x="159.77" y="-86.3" font-family="Times,serif" font-size="14.00">aws_instance.ec2_example</text>
</g>
<!-- [root] provider[&quot;registry.terraform.io/hashicorp/aws&quot;] -->
<g id="node3" class="node">
<title>[root] provider[&quot;registry.terraform.io/hashicorp/aws&quot;]</title>
<polygon fill="none" stroke="black" points="252.77,-36 0.23,-18 252.77,0 505.3,-18 252.77,-36"/>
<text text-anchor="middle" x="252.77" y="-14.3" font-family="Times,serif" font-size="14.00">provider[&quot;registry.terraform.io/hashicorp/aws&quot;]</text>
</g>
<!-- [root] aws_instance.ec2_example (expand)&#45;&gt;[root] provider[&quot;registry.terraform.io/hashicorp/aws&quot;] -->
<g id="edge1" class="edge">
<title>[root] aws_instance.ec2_example (expand)&#45;&gt;[root] provider[&quot;registry.terraform.io/hashicorp/aws&quot;]</title>
<path fill="none" stroke="black" d="M182.76,-71.7C195.11,-62.4 210.47,-50.84 223.65,-40.91"/>
<polygon fill="black" stroke="black" points="226.06,-43.48 231.95,-34.67 221.85,-37.89 226.06,-43.48"/>
</g>
<!-- [root] aws_security_group.instance (expand) -->
<g id="node2" class="node">
<title>[root] aws_security_group.instance (expand)</title>
<polygon fill="none" stroke="black" points="433.27,-108 260.27,-108 260.27,-72 433.27,-72 433.27,-108"/>
<text text-anchor="middle" x="346.77" y="-86.3" font-family="Times,serif" font-size="14.00">aws_security_group.instance</text>
</g>
<!-- [root] aws_security_group.instance (expand)&#45;&gt;[root] provider[&quot;registry.terraform.io/hashicorp/aws&quot;] -->
<g id="edge2" class="edge">
<title>[root] aws_security_group.instance (expand)&#45;&gt;[root] provider[&quot;registry.terraform.io/hashicorp/aws&quot;]</title>
<path fill="none" stroke="black" d="M323.53,-71.7C311.04,-62.4 295.52,-50.84 282.2,-40.91"/>
<polygon fill="black" stroke="black" points="283.92,-37.84 273.81,-34.67 279.74,-43.45 283.92,-37.84"/>
</g>
<!-- [root] provider[&quot;registry.terraform.io/hashicorp/aws&quot;] (close) -->
<g id="node4" class="node">
<title>[root] provider[&quot;registry.terraform.io/hashicorp/aws&quot;] (close)</title>
<ellipse fill="none" stroke="black" cx="252.77" cy="-162" rx="227.46" ry="18"/>
<text text-anchor="middle" x="252.77" y="-158.3" font-family="Times,serif" font-size="14.00">[root] provider[&quot;registry.terraform.io/hashicorp/aws&quot;] (close)</text>
</g>
<!-- [root] provider[&quot;registry.terraform.io/hashicorp/aws&quot;] (close)&#45;&gt;[root] aws_instance.ec2_example (expand) -->
<g id="edge3" class="edge">
<title>[root] provider[&quot;registry.terraform.io/hashicorp/aws&quot;] (close)&#45;&gt;[root] aws_instance.ec2_example (expand)</title>
<path fill="none" stroke="black" d="M230.26,-144.05C218.35,-135.09 203.55,-123.96 190.6,-114.2"/>
<polygon fill="black" stroke="black" points="192.49,-111.25 182.4,-108.03 188.28,-116.84 192.49,-111.25"/>
</g>
<!-- [root] provider[&quot;registry.terraform.io/hashicorp/aws&quot;] (close)&#45;&gt;[root] aws_security_group.instance (expand) -->
<g id="edge4" class="edge">
<title>[root] provider[&quot;registry.terraform.io/hashicorp/aws&quot;] (close)&#45;&gt;[root] aws_security_group.instance (expand)</title>
<path fill="none" stroke="black" d="M275.52,-144.05C287.56,-135.09 302.51,-123.96 315.61,-114.2"/>
<polygon fill="black" stroke="black" points="317.97,-116.81 323.9,-108.03 313.79,-111.2 317.97,-116.81"/>
</g>
<!-- [root] root -->
<g id="node5" class="node">
<title>[root] root</title>
<ellipse fill="none" stroke="black" cx="252.77" cy="-234" rx="47.39" ry="18"/>
<text text-anchor="middle" x="252.77" y="-230.3" font-family="Times,serif" font-size="14.00">[root] root</text>
</g>
<!-- [root] root&#45;&gt;[root] provider[&quot;registry.terraform.io/hashicorp/aws&quot;] (close) -->
<g id="edge5" class="edge">
<title>[root] root&#45;&gt;[root] provider[&quot;registry.terraform.io/hashicorp/aws&quot;] (close)</title>
<path fill="none" stroke="black" d="M252.77,-215.7C252.77,-207.98 252.77,-198.71 252.77,-190.11"/>
<polygon fill="black" stroke="black" points="256.27,-190.1 252.77,-180.1 249.27,-190.1 256.27,-190.1"/>
</g>
</g>
</svg>
